<mxfile host="app.diagrams.net" modified="2021-03-04T05:57:27.251Z" agent="5.0 (Windows)" etag="vAu8Df_KrkY3GIxppNjd" version="14.4.3" type="github">
  <diagram name="Page-1" id="822b0af5-4adb-64df-f703-e8dfc1f81529">
    <mxGraphModel dx="1422" dy="763" grid="1" gridSize="10" guides="1" tooltips="1" connect="1" arrows="1" fold="1" page="1" pageScale="1" pageWidth="1100" pageHeight="850" background="#ffffff" math="0" shadow="0">
      <root>
        <mxCell id="0" />
        <mxCell id="1" parent="0" />
        <mxCell id="1J9lQHzlHTQwTP77_R8F-56" style="edgeStyle=orthogonalEdgeStyle;rounded=0;orthogonalLoop=1;jettySize=auto;html=1;" parent="1" source="1J9lQHzlHTQwTP77_R8F-48" edge="1">
          <mxGeometry relative="1" as="geometry">
            <mxPoint x="550" y="370" as="targetPoint" />
            <Array as="points">
              <mxPoint x="845" y="400" />
              <mxPoint x="550" y="400" />
            </Array>
          </mxGeometry>
        </mxCell>
        <mxCell id="1J9lQHzlHTQwTP77_R8F-54" style="edgeStyle=orthogonalEdgeStyle;rounded=0;orthogonalLoop=1;jettySize=auto;html=1;entryX=0.5;entryY=1;entryDx=0;entryDy=0;entryPerimeter=0;fontStyle=1" parent="1" source="1J9lQHzlHTQwTP77_R8F-32" target="1J9lQHzlHTQwTP77_R8F-3" edge="1">
          <mxGeometry relative="1" as="geometry">
            <Array as="points">
              <mxPoint x="517" y="400" />
              <mxPoint x="550" y="400" />
            </Array>
          </mxGeometry>
        </mxCell>
        <mxCell id="1J9lQHzlHTQwTP77_R8F-13" style="edgeStyle=orthogonalEdgeStyle;rounded=0;orthogonalLoop=1;jettySize=auto;html=1;entryX=0.5;entryY=0;entryDx=0;entryDy=0;entryPerimeter=0;" parent="1" source="1J9lQHzlHTQwTP77_R8F-1" target="1J9lQHzlHTQwTP77_R8F-4" edge="1">
          <mxGeometry relative="1" as="geometry" />
        </mxCell>
        <mxCell id="1J9lQHzlHTQwTP77_R8F-1" value="" style="html=1;outlineConnect=0;fillColor=#CCCCCC;strokeColor=#6881B3;gradientColor=none;gradientDirection=north;strokeWidth=2;shape=mxgraph.networks.cloud;fontColor=#ffffff;" parent="1" vertex="1">
          <mxGeometry x="505" y="100" width="90" height="50" as="geometry" />
        </mxCell>
        <mxCell id="1J9lQHzlHTQwTP77_R8F-16" style="edgeStyle=orthogonalEdgeStyle;rounded=0;orthogonalLoop=1;jettySize=auto;html=1;" parent="1" source="1J9lQHzlHTQwTP77_R8F-3" target="1J9lQHzlHTQwTP77_R8F-4" edge="1">
          <mxGeometry relative="1" as="geometry" />
        </mxCell>
        <mxCell id="1J9lQHzlHTQwTP77_R8F-3" value="" style="fontColor=#0066CC;verticalAlign=top;verticalLabelPosition=bottom;labelPosition=center;align=center;html=1;outlineConnect=0;fillColor=#CCCCCC;strokeColor=#6881B3;gradientColor=none;gradientDirection=north;strokeWidth=2;shape=mxgraph.networks.switch;" parent="1" vertex="1">
          <mxGeometry x="500" y="340" width="100" height="30" as="geometry" />
        </mxCell>
        <mxCell id="1J9lQHzlHTQwTP77_R8F-14" style="edgeStyle=orthogonalEdgeStyle;rounded=0;orthogonalLoop=1;jettySize=auto;html=1;" parent="1" source="1J9lQHzlHTQwTP77_R8F-4" target="1J9lQHzlHTQwTP77_R8F-1" edge="1">
          <mxGeometry relative="1" as="geometry" />
        </mxCell>
        <mxCell id="1J9lQHzlHTQwTP77_R8F-15" style="edgeStyle=orthogonalEdgeStyle;rounded=0;orthogonalLoop=1;jettySize=auto;html=1;" parent="1" source="1J9lQHzlHTQwTP77_R8F-4" target="1J9lQHzlHTQwTP77_R8F-3" edge="1">
          <mxGeometry relative="1" as="geometry" />
        </mxCell>
        <mxCell id="1J9lQHzlHTQwTP77_R8F-4" value="" style="fontColor=#0066CC;verticalAlign=top;verticalLabelPosition=bottom;labelPosition=center;align=center;html=1;outlineConnect=0;fillColor=#CCCCCC;strokeColor=#6881B3;gradientColor=none;gradientDirection=north;strokeWidth=2;shape=mxgraph.networks.firewall;" parent="1" vertex="1">
          <mxGeometry x="500" y="200" width="100" height="100" as="geometry" />
        </mxCell>
        <mxCell id="1J9lQHzlHTQwTP77_R8F-21" value="" style="group" parent="1" vertex="1" connectable="0">
          <mxGeometry x="20" y="440" width="342" height="260" as="geometry" />
        </mxCell>
        <mxCell id="1J9lQHzlHTQwTP77_R8F-17" value="" style="rounded=1;whiteSpace=wrap;html=1;" parent="1J9lQHzlHTQwTP77_R8F-21" vertex="1">
          <mxGeometry width="320" height="260" as="geometry" />
        </mxCell>
        <mxCell id="1J9lQHzlHTQwTP77_R8F-2" value="" style="fontColor=#0066CC;verticalAlign=top;verticalLabelPosition=bottom;labelPosition=center;align=center;html=1;outlineConnect=0;fillColor=#CCCCCC;strokeColor=#6881B3;gradientColor=none;gradientDirection=north;strokeWidth=2;shape=mxgraph.networks.server;" parent="1J9lQHzlHTQwTP77_R8F-21" vertex="1">
          <mxGeometry x="30" y="20" width="90" height="100" as="geometry" />
        </mxCell>
        <mxCell id="1J9lQHzlHTQwTP77_R8F-12" value="" style="fontColor=#0066CC;verticalAlign=top;verticalLabelPosition=bottom;labelPosition=center;align=center;html=1;outlineConnect=0;fillColor=#CCCCCC;strokeColor=#6881B3;gradientColor=none;gradientDirection=north;strokeWidth=2;shape=mxgraph.networks.virtual_server;" parent="1J9lQHzlHTQwTP77_R8F-21" vertex="1">
          <mxGeometry x="20" y="129.5" width="110" height="120" as="geometry" />
        </mxCell>
        <mxCell id="1J9lQHzlHTQwTP77_R8F-18" value="&lt;h1&gt;HyperV01&lt;/h1&gt;&lt;p&gt;10.10.4.61&lt;/p&gt;&lt;p&gt;Windows Server 2019 Datacenter&lt;/p&gt;&lt;p&gt;&lt;br&gt;&lt;/p&gt;" style="text;html=1;strokeColor=none;fillColor=none;spacing=5;spacingTop=-20;whiteSpace=wrap;overflow=hidden;rounded=0;" parent="1J9lQHzlHTQwTP77_R8F-21" vertex="1">
          <mxGeometry x="130" y="24.5" width="210" height="105" as="geometry" />
        </mxCell>
        <mxCell id="1J9lQHzlHTQwTP77_R8F-20" value="&lt;h1&gt;LNetflis&lt;br&gt;&lt;/h1&gt;&lt;p&gt;10.10.4.63&lt;/p&gt;&lt;p&gt;Ubuntu Server 20.04.1 LTS&lt;/p&gt;&lt;p&gt;Emby Server App&lt;br&gt;&lt;/p&gt;&lt;p&gt;&lt;br&gt;&lt;/p&gt;" style="text;html=1;strokeColor=none;fillColor=none;spacing=5;spacingTop=-20;whiteSpace=wrap;overflow=hidden;rounded=0;" parent="1J9lQHzlHTQwTP77_R8F-21" vertex="1">
          <mxGeometry x="132" y="134" width="210" height="126" as="geometry" />
        </mxCell>
        <mxCell id="1J9lQHzlHTQwTP77_R8F-27" value="" style="group" parent="1" vertex="1" connectable="0">
          <mxGeometry x="362" y="440" width="315" height="180" as="geometry" />
        </mxCell>
        <mxCell id="1J9lQHzlHTQwTP77_R8F-23" value="" style="rounded=1;whiteSpace=wrap;html=1;" parent="1J9lQHzlHTQwTP77_R8F-27" vertex="1">
          <mxGeometry width="310" height="180" as="geometry" />
        </mxCell>
        <mxCell id="1J9lQHzlHTQwTP77_R8F-8" value="" style="fontColor=#0066CC;verticalAlign=top;verticalLabelPosition=bottom;labelPosition=center;align=center;html=1;outlineConnect=0;fillColor=#CCCCCC;strokeColor=#6881B3;gradientColor=none;gradientDirection=north;strokeWidth=2;shape=mxgraph.networks.server_storage;" parent="1J9lQHzlHTQwTP77_R8F-27" vertex="1">
          <mxGeometry x="10" y="30" width="105" height="105" as="geometry" />
        </mxCell>
        <mxCell id="1J9lQHzlHTQwTP77_R8F-22" value="&lt;h1&gt;Vault01&lt;/h1&gt;&lt;p&gt;10.10.4.91&lt;/p&gt;&lt;p&gt;Windows Server 2019 Standard&lt;/p&gt;&lt;div&gt;2.73 TB &lt;br&gt;&lt;/div&gt;&lt;div&gt;4 x 1 TB HDD SAS 15000 RPM&lt;/div&gt;&lt;div&gt;RAID 5&lt;br&gt;&lt;/div&gt;" style="text;html=1;strokeColor=none;fillColor=none;spacing=5;spacingTop=-20;whiteSpace=wrap;overflow=hidden;rounded=0;" parent="1J9lQHzlHTQwTP77_R8F-27" vertex="1">
          <mxGeometry x="125" y="11.25" width="190" height="157.5" as="geometry" />
        </mxCell>
        <mxCell id="1J9lQHzlHTQwTP77_R8F-24" value="" style="rounded=1;whiteSpace=wrap;html=1;" parent="1J9lQHzlHTQwTP77_R8F-27" vertex="1">
          <mxGeometry width="310" height="180" as="geometry" />
        </mxCell>
        <mxCell id="1J9lQHzlHTQwTP77_R8F-25" value="" style="fontColor=#0066CC;verticalAlign=top;verticalLabelPosition=bottom;labelPosition=center;align=center;html=1;outlineConnect=0;fillColor=#CCCCCC;strokeColor=#6881B3;gradientColor=none;gradientDirection=north;strokeWidth=2;shape=mxgraph.networks.server_storage;" parent="1J9lQHzlHTQwTP77_R8F-27" vertex="1">
          <mxGeometry x="10" y="30" width="105" height="105" as="geometry" />
        </mxCell>
        <mxCell id="1J9lQHzlHTQwTP77_R8F-26" value="&lt;h1&gt;Vault01&lt;/h1&gt;&lt;p&gt;10.10.4.91&lt;/p&gt;&lt;p&gt;Windows Server 2019 Standard&lt;/p&gt;&lt;div&gt;2.73 TB &lt;br&gt;&lt;/div&gt;&lt;div&gt;4 x 1 TB HDD SAS 15000 RPM&lt;/div&gt;&lt;div&gt;RAID 5&lt;br&gt;&lt;/div&gt;" style="text;html=1;strokeColor=none;fillColor=none;spacing=5;spacingTop=-20;whiteSpace=wrap;overflow=hidden;rounded=0;" parent="1J9lQHzlHTQwTP77_R8F-27" vertex="1">
          <mxGeometry x="125" y="11.25" width="190" height="157.5" as="geometry" />
        </mxCell>
        <mxCell id="1J9lQHzlHTQwTP77_R8F-28" value="" style="group" parent="1" vertex="1" connectable="0">
          <mxGeometry x="362" y="660" width="315" height="180" as="geometry" />
        </mxCell>
        <mxCell id="1J9lQHzlHTQwTP77_R8F-29" value="" style="rounded=1;whiteSpace=wrap;html=1;" parent="1J9lQHzlHTQwTP77_R8F-28" vertex="1">
          <mxGeometry width="310" height="180" as="geometry" />
        </mxCell>
        <mxCell id="1J9lQHzlHTQwTP77_R8F-30" value="" style="fontColor=#0066CC;verticalAlign=top;verticalLabelPosition=bottom;labelPosition=center;align=center;html=1;outlineConnect=0;fillColor=#CCCCCC;strokeColor=#6881B3;gradientColor=none;gradientDirection=north;strokeWidth=2;shape=mxgraph.networks.server_storage;" parent="1J9lQHzlHTQwTP77_R8F-28" vertex="1">
          <mxGeometry x="10" y="30" width="105" height="105" as="geometry" />
        </mxCell>
        <mxCell id="1J9lQHzlHTQwTP77_R8F-31" value="&lt;h1&gt;Vault01&lt;/h1&gt;&lt;p&gt;10.10.4.91&lt;/p&gt;&lt;p&gt;Windows Server 2019 Standard&lt;/p&gt;&lt;div&gt;2.73 TB &lt;br&gt;&lt;/div&gt;&lt;div&gt;4 x 1 TB HDD SAS 15000 RPM&lt;/div&gt;&lt;div&gt;RAID 5&lt;br&gt;&lt;/div&gt;" style="text;html=1;strokeColor=none;fillColor=none;spacing=5;spacingTop=-20;whiteSpace=wrap;overflow=hidden;rounded=0;" parent="1J9lQHzlHTQwTP77_R8F-28" vertex="1">
          <mxGeometry x="125" y="11.25" width="190" height="157.5" as="geometry" />
        </mxCell>
        <mxCell id="1J9lQHzlHTQwTP77_R8F-32" value="" style="rounded=1;whiteSpace=wrap;html=1;" parent="1J9lQHzlHTQwTP77_R8F-28" vertex="1">
          <mxGeometry width="310" height="180" as="geometry" />
        </mxCell>
        <mxCell id="1J9lQHzlHTQwTP77_R8F-33" value="" style="fontColor=#0066CC;verticalAlign=top;verticalLabelPosition=bottom;labelPosition=center;align=center;html=1;outlineConnect=0;fillColor=#CCCCCC;strokeColor=#6881B3;gradientColor=none;gradientDirection=north;strokeWidth=2;shape=mxgraph.networks.server_storage;" parent="1J9lQHzlHTQwTP77_R8F-28" vertex="1">
          <mxGeometry x="10" y="30" width="105" height="105" as="geometry" />
        </mxCell>
        <mxCell id="1J9lQHzlHTQwTP77_R8F-34" value="&lt;h1&gt;Vault03&lt;/h1&gt;&lt;p&gt;10.10.4.111&lt;/p&gt;&lt;p&gt;Windows Server 2019 Standard&lt;/p&gt;&lt;div&gt;4.91 TB &lt;br&gt;&lt;/div&gt;&lt;div&gt;6 x 1 TB HDD SAS 15000 RPM&lt;/div&gt;&lt;div&gt;RAID 5&lt;br&gt;&lt;/div&gt;" style="text;html=1;strokeColor=none;fillColor=none;spacing=5;spacingTop=-20;whiteSpace=wrap;overflow=hidden;rounded=0;" parent="1J9lQHzlHTQwTP77_R8F-28" vertex="1">
          <mxGeometry x="125" y="11.25" width="190" height="157.5" as="geometry" />
        </mxCell>
        <mxCell id="1J9lQHzlHTQwTP77_R8F-37" value="" style="group" parent="1" vertex="1" connectable="0">
          <mxGeometry x="690" y="440" width="315" height="180" as="geometry" />
        </mxCell>
        <mxCell id="1J9lQHzlHTQwTP77_R8F-38" value="" style="rounded=1;whiteSpace=wrap;html=1;" parent="1J9lQHzlHTQwTP77_R8F-37" vertex="1">
          <mxGeometry width="310" height="180" as="geometry" />
        </mxCell>
        <mxCell id="1J9lQHzlHTQwTP77_R8F-39" value="" style="fontColor=#0066CC;verticalAlign=top;verticalLabelPosition=bottom;labelPosition=center;align=center;html=1;outlineConnect=0;fillColor=#CCCCCC;strokeColor=#6881B3;gradientColor=none;gradientDirection=north;strokeWidth=2;shape=mxgraph.networks.server_storage;" parent="1J9lQHzlHTQwTP77_R8F-37" vertex="1">
          <mxGeometry x="10" y="30" width="105" height="105" as="geometry" />
        </mxCell>
        <mxCell id="1J9lQHzlHTQwTP77_R8F-40" value="&lt;h1&gt;Vault01&lt;/h1&gt;&lt;p&gt;10.10.4.91&lt;/p&gt;&lt;p&gt;Windows Server 2019 Standard&lt;/p&gt;&lt;div&gt;2.73 TB &lt;br&gt;&lt;/div&gt;&lt;div&gt;4 x 1 TB HDD SAS 15000 RPM&lt;/div&gt;&lt;div&gt;RAID 5&lt;br&gt;&lt;/div&gt;" style="text;html=1;strokeColor=none;fillColor=none;spacing=5;spacingTop=-20;whiteSpace=wrap;overflow=hidden;rounded=0;" parent="1J9lQHzlHTQwTP77_R8F-37" vertex="1">
          <mxGeometry x="125" y="11.25" width="190" height="157.5" as="geometry" />
        </mxCell>
        <mxCell id="1J9lQHzlHTQwTP77_R8F-41" value="" style="rounded=1;whiteSpace=wrap;html=1;" parent="1J9lQHzlHTQwTP77_R8F-37" vertex="1">
          <mxGeometry width="310" height="180" as="geometry" />
        </mxCell>
        <mxCell id="1J9lQHzlHTQwTP77_R8F-42" value="" style="fontColor=#0066CC;verticalAlign=top;verticalLabelPosition=bottom;labelPosition=center;align=center;html=1;outlineConnect=0;fillColor=#CCCCCC;strokeColor=#6881B3;gradientColor=none;gradientDirection=north;strokeWidth=2;shape=mxgraph.networks.server_storage;" parent="1J9lQHzlHTQwTP77_R8F-37" vertex="1">
          <mxGeometry x="10" y="30" width="105" height="105" as="geometry" />
        </mxCell>
        <mxCell id="1J9lQHzlHTQwTP77_R8F-43" value="&lt;h1&gt;Vault02&lt;/h1&gt;&lt;p&gt;10.10.4.101&lt;/p&gt;&lt;p&gt;Windows Server 2019 Standard&lt;/p&gt;&lt;div&gt;4.91 TB &lt;br&gt;&lt;/div&gt;&lt;div&gt;6 x 1 TB HDD SAS 15000 RPM&lt;/div&gt;&lt;div&gt;RAID 5&lt;br&gt;&lt;/div&gt;" style="text;html=1;strokeColor=none;fillColor=none;spacing=5;spacingTop=-20;whiteSpace=wrap;overflow=hidden;rounded=0;" parent="1J9lQHzlHTQwTP77_R8F-37" vertex="1">
          <mxGeometry x="125" y="11.25" width="190" height="157.5" as="geometry" />
        </mxCell>
        <mxCell id="1J9lQHzlHTQwTP77_R8F-44" value="" style="group" parent="1" vertex="1" connectable="0">
          <mxGeometry x="690" y="640" width="315" height="180" as="geometry" />
        </mxCell>
        <mxCell id="1J9lQHzlHTQwTP77_R8F-55" value="" style="group" parent="1J9lQHzlHTQwTP77_R8F-44" vertex="1" connectable="0">
          <mxGeometry y="20" width="315" height="180" as="geometry" />
        </mxCell>
        <mxCell id="1J9lQHzlHTQwTP77_R8F-46" value="" style="fontColor=#0066CC;verticalAlign=top;verticalLabelPosition=bottom;labelPosition=center;align=center;html=1;outlineConnect=0;fillColor=#CCCCCC;strokeColor=#6881B3;gradientColor=none;gradientDirection=north;strokeWidth=2;shape=mxgraph.networks.server_storage;" parent="1J9lQHzlHTQwTP77_R8F-55" vertex="1">
          <mxGeometry x="10" y="30" width="105" height="105" as="geometry" />
        </mxCell>
        <mxCell id="1J9lQHzlHTQwTP77_R8F-47" value="&lt;h1&gt;Vault01&lt;/h1&gt;&lt;p&gt;10.10.4.91&lt;/p&gt;&lt;p&gt;Windows Server 2019 Standard&lt;/p&gt;&lt;div&gt;2.73 TB &lt;br&gt;&lt;/div&gt;&lt;div&gt;4 x 1 TB HDD SAS 15000 RPM&lt;/div&gt;&lt;div&gt;RAID 5&lt;br&gt;&lt;/div&gt;" style="text;html=1;strokeColor=none;fillColor=none;spacing=5;spacingTop=-20;whiteSpace=wrap;overflow=hidden;rounded=0;" parent="1J9lQHzlHTQwTP77_R8F-55" vertex="1">
          <mxGeometry x="125" y="11.25" width="190" height="157.5" as="geometry" />
        </mxCell>
        <mxCell id="1J9lQHzlHTQwTP77_R8F-48" value="" style="rounded=1;whiteSpace=wrap;html=1;" parent="1J9lQHzlHTQwTP77_R8F-55" vertex="1">
          <mxGeometry width="310" height="180" as="geometry" />
        </mxCell>
        <mxCell id="1J9lQHzlHTQwTP77_R8F-49" value="" style="fontColor=#0066CC;verticalAlign=top;verticalLabelPosition=bottom;labelPosition=center;align=center;html=1;outlineConnect=0;fillColor=#CCCCCC;strokeColor=#6881B3;gradientColor=none;gradientDirection=north;strokeWidth=2;shape=mxgraph.networks.server_storage;" parent="1J9lQHzlHTQwTP77_R8F-55" vertex="1">
          <mxGeometry x="10" y="30" width="105" height="105" as="geometry" />
        </mxCell>
        <mxCell id="1J9lQHzlHTQwTP77_R8F-50" value="&lt;h1&gt;Vault01&lt;/h1&gt;&lt;p&gt;10.10.4.121&lt;/p&gt;&lt;p&gt;Windows Server 2019 Standard&lt;/p&gt;&lt;div&gt;4.91 TB &lt;br&gt;&lt;/div&gt;&lt;div&gt;6 x 1 TB HDD SAS 15000 RPM&lt;/div&gt;&lt;div&gt;RAID 5&lt;br&gt;&lt;/div&gt;" style="text;html=1;strokeColor=none;fillColor=none;spacing=5;spacingTop=-20;whiteSpace=wrap;overflow=hidden;rounded=0;" parent="1J9lQHzlHTQwTP77_R8F-55" vertex="1">
          <mxGeometry x="125" y="11.25" width="190" height="157.5" as="geometry" />
        </mxCell>
        <mxCell id="1J9lQHzlHTQwTP77_R8F-51" style="edgeStyle=orthogonalEdgeStyle;rounded=0;orthogonalLoop=1;jettySize=auto;html=1;entryX=0;entryY=0.5;entryDx=0;entryDy=0;entryPerimeter=0;" parent="1" source="1J9lQHzlHTQwTP77_R8F-17" target="1J9lQHzlHTQwTP77_R8F-3" edge="1">
          <mxGeometry relative="1" as="geometry">
            <Array as="points">
              <mxPoint x="180" y="355" />
            </Array>
          </mxGeometry>
        </mxCell>
        <mxCell id="1J9lQHzlHTQwTP77_R8F-52" style="edgeStyle=orthogonalEdgeStyle;rounded=0;orthogonalLoop=1;jettySize=auto;html=1;entryX=0.5;entryY=1;entryDx=0;entryDy=0;entryPerimeter=0;" parent="1" source="1J9lQHzlHTQwTP77_R8F-24" target="1J9lQHzlHTQwTP77_R8F-3" edge="1">
          <mxGeometry relative="1" as="geometry">
            <Array as="points">
              <mxPoint x="517" y="400" />
              <mxPoint x="550" y="400" />
            </Array>
          </mxGeometry>
        </mxCell>
        <mxCell id="1J9lQHzlHTQwTP77_R8F-53" style="edgeStyle=orthogonalEdgeStyle;rounded=0;orthogonalLoop=1;jettySize=auto;html=1;" parent="1" source="1J9lQHzlHTQwTP77_R8F-41" edge="1">
          <mxGeometry relative="1" as="geometry">
            <mxPoint x="550" y="370" as="targetPoint" />
            <Array as="points">
              <mxPoint x="845" y="400" />
              <mxPoint x="550" y="400" />
            </Array>
          </mxGeometry>
        </mxCell>
      </root>
    </mxGraphModel>
  </diagram>
</mxfile>
